{
    "asset" : {
        "generator" : "Khronos glTF Blender I/O v1.7.33",
        "version" : "2.0"
    },
    "scene" : 0,
    "scenes" : [
        {
            "name" : "Scene",
            "nodes" : [
                0
            ]
        }
    ],
    "nodes" : [
        {
            "mesh" : 0,
            "name" : "Plane",
            "rotation" : [
                -0.70710688829422,
                0,
                0,
                -0.7071066498756409
            ],
            "scale" : [
                0.032071877270936966,
                0.032071877270936966,
                0.032071877270936966
            ],
            "translation" : [
                0.06027338653802872,
                -0.19060105085372925,
                -0.03277316316962242
            ]
        }
    ],
    "meshes" : [
        {
            "name" : "Plane.002",
            "primitives" : [
                {
                    "attributes" : {
                        "POSITION" : 0,
                        "NORMAL" : 1,
                        "TEXCOORD_0" : 2
                    },
                    "indices" : 3
                }
            ]
        }
    ],
    "accessors" : [
        {
            "bufferView" : 0,
            "componentType" : 5126,
            "count" : 2736,
            "max" : [
                24.067520141601562,
                2.5528364181518555,
                22.62729835510254
            ],
            "min" : [
                -21.932479858398438,
                -2.565160036087036,
                -19.37270164489746
            ],
            "type" : "VEC3"
        },
        {
            "bufferView" : 1,
            "componentType" : 5126,
            "count" : 2736,
            "type" : "VEC3"
        },
        {
            "bufferView" : 2,
            "componentType" : 5126,
            "count" : 2736,
            "type" : "VEC2"
        },
        {
            "bufferView" : 3,
            "componentType" : 5123,
            "count" : 4296,
            "type" : "SCALAR"
        }
    ],
    "bufferViews" : [
        {
            "buffer" : 0,
            "byteLength" : 32832,
            "byteOffset" : 0
        },
        {
            "buffer" : 0,
            "byteLength" : 32832,
            "byteOffset" : 32832
        },
        {
            "buffer" : 0,
            "byteLength" : 21888,
            "byteOffset" : 65664
        },
        {
            "buffer" : 0,
            "byteLength" : 8592,
            "byteOffset" : 87552
        }
    ],
    "buffers" : [
        {
            "byteLength" : 96144,
            "uri" : "data:application/octet-stream;base64,"
        }
    ]
}
