<svg width="157" height="143" viewBox="0 0 157 143" fill="none" xmlns="http://www.w3.org/2000/svg">
<rect x="6.8008" y="20.4213" width="6.81751" height="6.80952" fill="#8FD594"/>
<rect x="6.8008" y="13.619" width="6.81751" height="6.80952" fill="#8FD594"/>
<rect y="20.4213" width="6.81751" height="6.80952" fill="#8FD594"/>
<rect y="27.2381" width="6.81751" height="6.80952" fill="#8FD594"/>
<rect x="13.619" y="13.619" width="6.81751" height="6.80952" fill="#8FD594"/>
<rect x="20.4286" y="13.619" width="6.81751" height="6.80952" fill="#8FD594"/>
<rect x="27.2381" y="13.619" width="6.81751" height="6.80952" fill="#6AAA72"/>
<rect x="34.0476" y="20.4286" width="6.81751" height="6.80952" fill="#6AAA72"/>
<rect x="27.2381" y="20.4286" width="6.81751" height="6.80952" fill="#8FD594"/>
<rect x="34.0476" y="27.2381" width="6.81751" height="6.80952" fill="#8FD594"/>
<rect x="34.0476" y="34.0476" width="6.81751" height="6.80952" fill="#8FD594"/>
<rect x="6.8008" y="27.2308" width="6.81751" height="6.80952" fill="#8FD594"/>
<rect x="6.8008" y="34.0403" width="6.81751" height="6.80952" fill="#8FD594"/>
<rect x="20.4356" y="27.2308" width="6.81751" height="6.80952" fill="#8FD594"/>
<rect x="20.4356" y="34.0403" width="6.81751" height="6.80952" fill="#8FD594"/>
<rect x="20.4356" y="40.8499" width="6.81751" height="6.80952" fill="#8FD594"/>
<rect x="27.2531" y="40.8499" width="6.81751" height="6.80952" fill="#8FD594"/>
<rect x="27.2531" y="47.6667" width="6.81751" height="6.80952" fill="#02A09F"/>
<rect x="34.0705" y="47.6667" width="6.81751" height="6.80952" fill="#04B5B3"/>
<rect x="34.0705" y="40.8571" width="6.81751" height="6.80952" fill="#04B5B3"/>
<rect x="40.8867" y="34.0476" width="6.81751" height="6.80952" fill="#02A09F"/>
<rect x="40.8867" y="40.8644" width="6.81751" height="6.80952" fill="#04B5B3"/>
<rect x="40.8867" y="47.674" width="6.81751" height="6.80952" fill="#04B5B3"/>
<rect x="40.8571" y="54.4835" width="6.81751" height="6.80952" fill="#02A09F"/>
<rect x="34.0476" y="54.4835" width="6.81751" height="6.80952" fill="#02A09F"/>
<rect x="40.8571" y="61.2857" width="6.81751" height="6.80952" fill="#02A09F"/>
<rect x="34.0476" y="61.2857" width="6.81751" height="6.80952" fill="#02A09F"/>
<rect x="40.8571" y="68.0952" width="6.81751" height="6.80952" fill="#04B5B3"/>
<rect x="40.8867" y="27.2381" width="6.81751" height="6.80952" fill="#02A09F"/>
<rect x="47.6667" y="27.2454" width="6.81751" height="6.80952" fill="#04B5B3"/>
<rect x="47.6667" y="34.0549" width="6.81751" height="6.80952" fill="#04B5B3"/>
<rect x="47.7041" y="40.8644" width="6.81751" height="6.80952" fill="#04B5B3"/>
<rect x="47.7041" y="47.674" width="6.81751" height="6.80952" fill="#04B5B3"/>
<rect x="47.6667" y="54.4835" width="6.81751" height="6.80952" fill="#04B5B3"/>
<rect x="47.6667" y="61.2857" width="6.81751" height="6.80952" fill="#04B5B3"/>
<rect x="47.6667" y="68.0952" width="6.81751" height="6.80952" fill="#04B5B3"/>
<rect x="47.6667" y="74.9048" width="6.81751" height="6.80952" fill="#04B5B3"/>
<rect x="54.4841" y="34.0549" width="6.81751" height="6.80952" fill="#04B5B3"/>
<rect x="54.4762" y="40.8644" width="6.81751" height="6.80952" fill="#04B5B3"/>
<rect x="54.5215" y="47.674" width="6.81751" height="6.80952" fill="#04B5B3"/>
<rect x="54.4762" y="54.4835" width="6.81751" height="6.80952" fill="#04B5B3"/>
<rect x="54.4762" y="61.2857" width="6.81751" height="6.80952" fill="#04B5B3"/>
<rect x="54.4762" y="68.0952" width="6.81751" height="6.80952" fill="#04B5B3"/>
<rect x="54.4762" y="74.9048" width="6.81751" height="6.80952" fill="#04B5B3"/>
<rect x="54.4762" y="81.7143" width="6.81751" height="6.80952" fill="#04B5B3"/>
<rect x="54.4841" y="27.2454" width="6.81751" height="6.80952" fill="#04B5B3"/>
<rect x="54.5215" y="20.4286" width="6.81751" height="6.80952" fill="#8FD594"/>
<rect x="54.5215" y="13.619" width="6.81751" height="6.80952" fill="#8FD594"/>
<rect x="54.5215" y="6.80951" width="6.81751" height="6.80952" fill="#8FD594"/>
<rect x="61.3003" y="27.2527" width="6.81751" height="6.80952" fill="#02A09F"/>
<rect x="61.3377" y="20.4286" width="6.81751" height="6.80952" fill="#8FD594"/>
<rect x="20.4286" y="61.2857" width="6.81751" height="6.80952" fill="#8FD594"/>
<rect x="20.4286" y="68.0952" width="6.81751" height="6.80952" fill="#8FD594"/>
<rect x="20.4286" y="74.9048" width="6.81751" height="6.80952" fill="#8FD594"/>
<rect x="13.619" y="81.7143" width="6.81751" height="6.80952" fill="#8FD594"/>
<rect x="13.619" y="88.5238" width="6.81751" height="6.80952" fill="#6AAA72"/>
<rect x="13.619" y="95.3333" width="6.81751" height="6.80952" fill="#8FD594"/>
<rect x="6.80952" y="95.3333" width="6.81751" height="6.80952" fill="#8FD594"/>
<rect x="13.619" y="102.143" width="6.81751" height="6.80952" fill="#8FD594"/>
<rect x="68.0952" y="102.143" width="6.81751" height="6.80952" fill="#8FD594"/>
<rect x="74.9048" y="108.952" width="6.81751" height="6.80952" fill="#8FD594"/>
<rect x="74.9048" y="115.762" width="6.81751" height="6.80952" fill="#8FD594"/>
<rect x="74.9048" y="122.571" width="6.81751" height="6.80952" fill="#8FD594"/>
<rect x="81.7143" y="129.381" width="6.81751" height="6.80952" fill="#8FD594"/>
<rect x="88.5238" y="136.19" width="6.81751" height="6.80952" fill="#8FD594"/>
<rect x="95.3333" y="136.19" width="6.81751" height="6.80952" fill="#8FD594"/>
<rect x="102.143" y="136.19" width="6.81751" height="6.80952" fill="#8FD594"/>
<rect x="102.143" y="129.381" width="6.81751" height="6.80952" fill="#8FD594"/>
<rect x="102.143" y="122.571" width="6.81751" height="6.80952" fill="#8FD594"/>
<rect x="95.3333" y="115.762" width="6.81751" height="6.80952" fill="#8FD594"/>
<rect x="88.5238" y="108.952" width="6.81751" height="6.80952" fill="#8FD594"/>
<rect x="81.7143" y="108.952" width="6.81751" height="6.80952" fill="#8FD594"/>
<rect x="81.7143" y="115.762" width="6.81751" height="6.80952" fill="#8FD594"/>
<rect x="88.5238" y="115.762" width="6.81751" height="6.80952" fill="#8FD594"/>
<rect x="88.5238" y="122.571" width="6.81751" height="6.80952" fill="#8FD594"/>
<rect x="95.3333" y="122.571" width="6.81751" height="6.80952" fill="#8FD594"/>
<rect x="88.5238" y="129.381" width="6.81751" height="6.80952" fill="#6AAA72"/>
<rect x="95.3333" y="129.381" width="6.81751" height="6.80952" fill="#8FD594"/>
<rect x="81.7143" y="122.571" width="6.81751" height="6.80952" fill="#6AAA72"/>
<rect x="74.9048" y="102.143" width="6.81751" height="6.80952" fill="#8FD594"/>
<rect x="81.7143" y="102.143" width="6.81751" height="6.80952" fill="#8FD594"/>
<rect x="122.571" y="54.4835" width="6.81751" height="6.80952" fill="#8FD594"/>
<rect x="129.381" y="54.4835" width="6.81751" height="6.80952" fill="#8FD594"/>
<rect x="129.381" y="61.2857" width="6.81751" height="6.80952" fill="#8FD594"/>
<rect x="129.381" y="68.0952" width="6.81751" height="6.80952" fill="#8FD594"/>
<rect x="136.19" y="74.9048" width="6.81751" height="6.80952" fill="#8FD594"/>
<rect x="143" y="81.7143" width="6.81751" height="6.80952" fill="#8FD594"/>
<rect x="149.81" y="81.7143" width="6.81751" height="6.80952" fill="#8FD594"/>
<rect x="149.81" y="74.9048" width="6.81751" height="6.80952" fill="#8FD594"/>
<rect x="143" y="68.0952" width="6.81751" height="6.80952" fill="#8FD594"/>
<rect x="136.19" y="68.0952" width="6.81751" height="6.80952" fill="#8FD594"/>
<rect x="143" y="74.9048" width="6.81751" height="6.80952" fill="#8FD594"/>
<rect x="136.19" y="61.2857" width="6.81751" height="6.80952" fill="#6AAA72"/>
<rect x="129.381" y="54.4835" width="6.81751" height="6.80952" fill="#6AAA72"/>
<rect x="136.19" y="54.4835" width="6.81751" height="6.80952" fill="#8FD594"/>
<rect x="143" y="61.2857" width="6.81751" height="6.80952" fill="#8FD594"/>
<rect x="149.81" y="68.0952" width="6.81751" height="6.80952" fill="#8FD594"/>
<rect y="95.3333" width="6.81751" height="6.80952" fill="#8FD594"/>
<rect x="6.80952" y="102.143" width="6.81751" height="6.80952" fill="#8FD594"/>
<rect y="88.5238" width="6.81751" height="6.80952" fill="#8FD594"/>
<rect y="81.7143" width="6.81751" height="6.80952" fill="#8FD594"/>
<rect y="74.9048" width="6.81751" height="6.80952" fill="#8FD594"/>
<rect y="68.0952" width="6.81751" height="6.80952" fill="#8FD594"/>
<rect x="6.80952" y="61.2857" width="6.81751" height="6.80952" fill="#8FD594"/>
<rect x="13.619" y="61.2857" width="6.81751" height="6.80952" fill="#8FD594"/>
<rect x="13.619" y="68.0952" width="6.81751" height="6.80952" fill="#8FD594"/>
<rect x="13.619" y="74.9048" width="6.81751" height="6.80952" fill="#8FD594"/>
<rect x="6.80952" y="74.9048" width="6.81751" height="6.80952" fill="#8FD594"/>
<rect x="6.80952" y="68.0952" width="6.81751" height="6.80952" fill="#8FD594"/>
<rect x="6.80952" y="81.7143" width="6.81751" height="6.80952" fill="#6AAA72"/>
<rect x="6.80952" y="88.5238" width="6.81751" height="6.80952" fill="#8FD594"/>
<rect x="61.3377" y="13.619" width="6.81751" height="6.80952" fill="#8FD594"/>
<rect x="61.3377" y="6.80951" width="6.81751" height="6.80952" fill="#8FD594"/>
<rect x="61.3377" width="6.81751" height="6.80952" fill="#6AAA72"/>
<rect x="61.3003" y="34.0622" width="6.81751" height="6.80952" fill="#02A09F"/>
<rect x="61.2857" y="40.8717" width="6.81751" height="6.80952" fill="#04B5B3"/>
<rect x="61.3377" y="47.6812" width="6.81751" height="6.80952" fill="#04B5B3"/>
<rect x="61.2857" y="54.4907" width="6.81751" height="6.80952" fill="#02A09F"/>
<rect x="61.2857" y="61.293" width="6.81751" height="6.80952" fill="#02A09F"/>
<rect x="61.2857" y="68.1025" width="6.81751" height="6.80952" fill="#04B5B3"/>
<rect x="61.2857" y="74.912" width="6.81751" height="6.80952" fill="#04B5B3"/>
<rect x="61.2857" y="81.7216" width="6.81751" height="6.80952" fill="#02A09F"/>
<rect x="61.2857" y="88.5311" width="6.81751" height="6.80952" fill="#02A09F"/>
<rect x="68.0952" y="27.2454" width="6.81751" height="6.80952" fill="#02A09F"/>
<rect x="68.0952" y="20.4286" width="6.81751" height="6.80952" fill="#8FD594"/>
<rect x="68.0952" y="13.619" width="6.81751" height="6.80952" fill="#6AAA72"/>
<rect x="68.0952" y="6.80951" width="6.81751" height="6.80952" fill="#8FD594"/>
<rect x="68.0952" width="6.81751" height="6.80952" fill="#8FD594"/>
<rect x="74.9048" width="6.81751" height="6.80952" fill="#8FD594"/>
<rect x="81.7143" width="6.81751" height="6.80952" fill="#8FD594"/>
<rect x="88.5238" y="6.80951" width="6.81751" height="6.80952" fill="#8FD594"/>
<rect x="88.5238" y="13.619" width="6.81751" height="6.80952" fill="#8FD594"/>
<rect x="81.7143" y="13.619" width="6.81751" height="6.80952" fill="#8FD594"/>
<rect x="74.9048" y="20.4286" width="6.81751" height="6.80952" fill="#8FD594"/>
<rect x="74.9048" y="13.619" width="6.81751" height="6.80952" fill="#8FD594"/>
<rect x="74.9048" y="6.80951" width="6.81751" height="6.80952" fill="#6AAA72"/>
<rect x="81.7143" y="6.80951" width="6.81751" height="6.80952" fill="#8FD594"/>
<rect x="68.0952" y="34.0549" width="6.81751" height="6.80952" fill="#02A09F"/>
<rect x="68.0952" y="40.8717" width="6.81751" height="6.80952" fill="#04B5B3"/>
<rect x="68.0952" y="47.6812" width="6.81751" height="6.80952" fill="#04B5B3"/>
<rect x="68.0952" y="54.4907" width="6.81751" height="6.80952" fill="#04B5B3"/>
<rect x="68.0952" y="61.293" width="6.81751" height="6.80952" fill="#02A09F"/>
<rect x="68.0952" y="68.1025" width="6.81751" height="6.80952" fill="#04B5B3"/>
<rect x="68.0952" y="74.912" width="6.81751" height="6.80952" fill="#04B5B3"/>
<rect x="68.0952" y="81.7216" width="6.81751" height="6.80952" fill="#02A09F"/>
<rect x="68.0952" y="88.5311" width="6.81751" height="6.80952" fill="#02A09F"/>
<rect x="74.9048" y="27.2454" width="6.81751" height="6.80952" fill="#04B5B3"/>
<rect x="74.9048" y="34.0549" width="6.81751" height="6.80952" fill="#04B5B3"/>
<rect x="74.9048" y="40.8717" width="6.81751" height="6.80952" fill="#02A09F"/>
<rect x="74.9048" y="47.6812" width="6.81751" height="6.80952" fill="#02A09F"/>
<rect x="74.9048" y="54.4907" width="6.81751" height="6.80952" fill="#04B5B3"/>
<rect x="74.9048" y="61.293" width="6.81751" height="6.80952" fill="#04B5B3"/>
<rect x="74.9048" y="68.1025" width="6.81751" height="6.80952" fill="#02A09F"/>
<rect x="74.9048" y="74.912" width="6.81751" height="6.80952" fill="#04B5B3"/>
<rect x="74.9048" y="81.7216" width="6.81751" height="6.80952" fill="#04B5B3"/>
<rect x="74.9048" y="88.5311" width="6.81751" height="6.80952" fill="#04B5B3"/>
<rect x="81.7143" y="27.2454" width="6.81751" height="6.80952" fill="#04B5B3"/>
<rect x="81.7143" y="34.0622" width="6.81751" height="6.80952" fill="#04B5B3"/>
<rect x="81.7143" y="40.879" width="6.81751" height="6.80952" fill="#02A09F"/>
<rect x="81.7143" y="47.6885" width="6.81751" height="6.80952" fill="#02A09F"/>
<rect x="81.7143" y="54.498" width="6.81751" height="6.80952" fill="#04B5B3"/>
<rect x="81.7143" y="61.3003" width="6.81751" height="6.80952" fill="#04B5B3"/>
<rect x="81.7143" y="68.1098" width="6.81751" height="6.80952" fill="#02A09F"/>
<rect x="81.7143" y="74.9193" width="6.81751" height="6.80952" fill="#02A09F"/>
<rect x="81.7143" y="81.7288" width="6.81751" height="6.80952" fill="#04B5B3"/>
<rect x="81.7143" y="88.5384" width="6.81751" height="6.80952" fill="#04B5B3"/>
<rect x="88.5238" y="34.0476" width="6.81751" height="6.80952" fill="#04B5B3"/>
<rect x="88.5238" y="40.8644" width="6.81751" height="6.80952" fill="#04B5B3"/>
<rect x="88.5238" y="47.674" width="6.81751" height="6.80952" fill="#04B5B3"/>
<rect x="88.5238" y="54.4835" width="6.81751" height="6.80952" fill="#02A09F"/>
<rect x="95.3333" y="54.4835" width="6.81751" height="6.80952" fill="#04B5B3"/>
<rect x="102.143" y="54.4835" width="6.81751" height="6.80952" fill="#04B5B3"/>
<rect x="108.952" y="54.4835" width="6.81751" height="6.80952" fill="#04B5B3"/>
<rect x="88.5238" y="61.2857" width="6.81751" height="6.80952" fill="#04B5B3"/>
<rect x="95.3333" y="61.2857" width="6.81751" height="6.80952" fill="#04B5B3"/>
<rect x="102.143" y="61.2857" width="6.81751" height="6.80952" fill="#04B5B3"/>
<rect x="108.952" y="61.2857" width="6.81751" height="6.80952" fill="#04B5B3"/>
<rect x="115.762" y="61.2857" width="6.81751" height="6.80952" fill="#04B5B3"/>
<rect x="88.5238" y="68.0952" width="6.81751" height="6.80952" fill="#04B5B3"/>
<rect x="95.3333" y="68.0952" width="6.81751" height="6.80952" fill="#04B5B3"/>
<rect x="102.143" y="68.0952" width="6.81751" height="6.80952" fill="#02A09F"/>
<rect x="108.952" y="68.0952" width="6.81751" height="6.80952" fill="#02A09F"/>
<rect x="115.762" y="68.0952" width="6.81751" height="6.80952" fill="#04B5B3"/>
<rect x="88.5238" y="74.9048" width="6.81751" height="6.80952" fill="#04B5B3"/>
<rect x="95.3333" y="74.9048" width="6.81751" height="6.80952" fill="#04B5B3"/>
<rect x="102.143" y="74.9048" width="6.81751" height="6.80952" fill="#02A09F"/>
<rect x="108.952" y="74.9048" width="6.81751" height="6.80952" fill="#02A09F"/>
<rect x="115.762" y="74.9048" width="6.81751" height="6.80952" fill="#04B5B3"/>
<rect x="88.5238" y="81.7143" width="6.81751" height="6.80952" fill="#04B5B3"/>
<rect x="95.3333" y="81.7143" width="6.81751" height="6.80952" fill="#04B5B3"/>
<rect x="102.143" y="81.7143" width="6.81751" height="6.80952" fill="#04B5B3"/>
<rect x="108.952" y="81.7143" width="6.81751" height="6.80952" fill="#04B5B3"/>
<rect x="115.762" y="81.7143" width="6.81751" height="6.80952" fill="#04B5B3"/>
<rect x="88.5238" y="88.5238" width="6.81751" height="6.80952" fill="#04B5B3"/>
<rect x="95.3333" y="88.5238" width="6.81751" height="6.80952" fill="#04B5B3"/>
<rect x="102.143" y="88.5238" width="6.81751" height="6.80952" fill="#02A09F"/>
<rect x="108.952" y="88.5238" width="6.81751" height="6.80952" fill="#04B5B3"/>
<rect x="115.762" y="88.5238" width="6.81751" height="6.80952" fill="#04B5B3"/>
<rect x="95.2905" y="34.0476" width="6.81751" height="6.80952" fill="#04B5B3"/>
<rect x="102.108" y="40.8644" width="6.81751" height="6.80952" fill="#02A09F"/>
<rect x="95.3333" y="40.8644" width="6.81751" height="6.80952" fill="#04B5B3"/>
<rect x="95.3333" y="47.674" width="6.81751" height="6.80952" fill="#04B5B3"/>
<rect x="102.143" y="47.674" width="6.81751" height="6.80952" fill="#02A09F"/>
<rect x="108.925" y="47.6667" width="6.81751" height="6.80952" fill="#02A09F"/>
<rect x="115.743" y="54.4762" width="6.81751" height="6.80952" fill="#04B5B3"/>
<rect x="122.56" y="61.2784" width="6.81751" height="6.80952" fill="#04B5B3"/>
<rect x="122.56" y="68.088" width="6.81751" height="6.80952" fill="#04B5B3"/>
<rect x="122.56" y="74.8975" width="6.81751" height="6.80952" fill="#04B5B3"/>
<rect x="122.56" y="81.707" width="6.81751" height="6.80952" fill="#04B5B3"/>
<rect x="108.925" y="95.326" width="6.81751" height="6.80952" fill="#04B5B3"/>
<rect x="102.108" y="95.326" width="6.81751" height="6.80952" fill="#04B5B3"/>
<rect x="95.2905" y="95.326" width="6.81751" height="6.80952" fill="#04B5B3"/>
<rect x="88.4743" y="95.326" width="6.81751" height="6.80952" fill="#04B5B3"/>
<rect x="81.6569" y="95.326" width="6.81751" height="6.80952" fill="#02A09F"/>
<rect x="81.6569" y="102.143" width="6.81751" height="6.80952" fill="#02A09F"/>
<rect x="88.5238" y="102.143" width="6.81751" height="6.80952" fill="#04B5B3"/>
<rect x="95.3333" y="102.143" width="6.81751" height="6.80952" fill="#04B5B3"/>
<rect x="95.3333" y="102.143" width="6.81751" height="6.80952" fill="#04B5B3"/>
<rect x="102.143" y="102.143" width="6.81751" height="6.80952" fill="#04B5B3"/>
<rect x="74.8408" y="95.326" width="6.81751" height="6.80952" fill="#02A09F"/>
<rect x="74.8408" y="102.143" width="6.81751" height="6.80952" fill="#02A09F"/>
<rect x="68.0952" y="95.326" width="6.81751" height="6.80952" fill="#04B5B3"/>
<rect x="68.0952" y="102.143" width="6.81751" height="6.80952" fill="#04B5B3"/>
<rect x="61.2857" y="95.326" width="6.81751" height="6.80952" fill="#04B5B3"/>
<rect x="54.4762" y="95.326" width="6.81751" height="6.80952" fill="#04B5B3"/>
<rect x="54.4762" y="88.5238" width="6.81751" height="6.80952" fill="#04B5B3"/>
<rect x="47.6667" y="88.5238" width="6.81751" height="6.80952" fill="#04B5B3"/>
<rect x="47.6667" y="81.7143" width="6.81751" height="6.80952" fill="#04B5B3"/>
<rect x="40.8571" y="81.7143" width="6.81751" height="6.80952" fill="#02A09F"/>
<rect x="40.8571" y="74.9048" width="6.81751" height="6.80952" fill="#04B5B3"/>
<rect x="34.0476" y="74.9048" width="6.81751" height="6.80952" fill="#04B5B3"/>
<rect x="34.0476" y="68.0952" width="6.81751" height="6.80952" fill="#04B5B3"/>
<rect x="27.2381" y="68.0952" width="6.81751" height="6.80952" fill="#02A09F"/>
<rect x="27.2381" y="61.2857" width="6.81751" height="6.80952" fill="#04B5B3"/>
<rect x="27.2381" y="54.4835" width="6.81751" height="6.80952" fill="#04B5B3"/>
<rect x="115.743" y="47.6667" width="6.81751" height="6.80952" fill="#04B5B3"/>
<rect x="88.5238" y="27.2381" width="6.81751" height="6.80952" fill="#04B5B3"/>
<rect x="20.4356" y="20.4213" width="6.81751" height="6.80952" fill="#8FD594"/>
<rect x="13.6182" y="20.4213" width="6.81751" height="6.80952" fill="#324848"/>
<rect x="13.6182" y="27.2308" width="6.81751" height="6.80952" fill="#8FD594"/>
<rect x="13.6182" y="34.0403" width="6.81751" height="6.80952" fill="#8FD594"/>
<rect x="13.6182" y="40.8499" width="6.81751" height="6.80952" fill="#8FD594"/>
<rect x="27.2531" y="27.2308" width="6.81751" height="6.80952" fill="#8FD594"/>
<rect x="27.2531" y="34.0403" width="6.81751" height="6.80952" fill="#8FD594"/>
</svg>
